# Blender v2.70 (sub 0) OBJ File: 'box2.blend'
# www.blender.org
o Cube
v 1.000000 -1.000000 -1.000000
v 1.000000 -1.000000 1.000000
v -1.000000 -1.000000 1.000000
v -1.000000 -1.000000 -1.000000
v 1.000000 1.000000 -0.999999
v 0.999999 1.000000 1.000001
v -1.000000 1.000000 1.000000
v -1.000000 1.000000 -1.000000
vt 0.250043 0.749956
vt 0.250043 0.500000
vt 0.499999 0.499999
vt 0.499999 0.000087
vt 0.499999 0.250043
vt 0.250043 0.250043
vt 0.500000 0.999913
vt 0.250043 0.999914
vt 0.000087 0.000087
vt 0.250043 0.000087
vt 0.749955 0.000087
vt 0.749955 0.250043
vt 0.500000 0.749956
vt 0.000087 0.250043
vn 0.000000 -1.000000 0.000000
vn 0.000000 1.000000 -0.000000
vn 1.000000 0.000000 0.000001
vn -0.000000 -0.000000 1.000000
vn -1.000000 -0.000000 -0.000000
vn 0.000000 0.000000 -1.000000
vn 1.000000 -0.000000 0.000000
s off
f 2/1/1 3/2/1 4/3/1
f 5/4/2 8/5/2 7/6/2
f 5/7/3 6/8/3 2/1/3
f 2/9/4 6/10/4 7/6/4
f 7/6/5 8/5/5 4/3/5
f 1/11/6 4/12/6 8/5/6
f 1/13/1 2/1/1 4/3/1
f 6/10/2 5/4/2 7/6/2
f 1/13/7 5/7/7 2/1/7
f 3/14/4 2/9/4 7/6/4
f 3/2/5 7/6/5 4/3/5
f 5/4/6 1/11/6 8/5/6
