# This file uses centimeters as units for non-parametric coordinates.

mtllib LYKTSOTLP.mtl
g default
v 0.294602 -7.671024 -0.369419
v -0.105142 -7.671024 -0.460658
v -0.425712 -7.671024 -0.205012
v -0.425712 -7.671024 0.205012
v -0.105142 -7.671024 0.460658
v 0.294602 -7.671024 0.369419
v 0.472505 -7.671024 0.000000
v 0.294602 7.671024 -0.369419
v -0.105142 7.671024 -0.460658
v -0.425712 7.671024 -0.205012
v -0.425712 7.671024 0.205012
v -0.105142 7.671024 0.460658
v 0.294602 7.671024 0.369419
v 0.472505 7.671024 0.000000
v 0.000000 -7.671024 0.000000
v 0.717345 8.657773 -0.369419
v 0.371076 8.789266 -0.460659
v 0.093391 8.894716 -0.205011
v 0.093391 8.894716 0.205012
v 0.371076 8.789266 0.460658
v 0.717345 8.657773 0.369419
v 0.871449 8.599257 0.000001
v 1.574445 8.679490 -0.369420
v 1.447674 8.922102 -0.460657
v 1.346012 9.116663 -0.205010
v 1.346012 9.116663 0.205011
v 1.447674 8.922102 0.460656
v 1.574445 8.679490 0.369419
v 1.630864 8.571514 0.000000
v 2.403883 8.658997 -0.369420
v 2.381430 8.931812 -0.460657
v 2.363423 9.150594 -0.205010
v 2.363423 9.150594 0.205011
v 2.381430 8.931812 0.460656
v 2.403883 8.658997 0.369419
v 2.413876 8.537583 0.000000
v 1.519489 7.051218 0.870013
v 1.575908 6.943243 0.000001
v 2.358921 6.909312 0.000001
v 2.348927 7.030727 0.870013
v 1.519489 7.051217 -0.870013
v 2.348927 7.030726 -0.870013
v 2.690757 8.682609 -0.369420
v 2.668303 8.955423 -0.460657
v 2.933371 8.883667 -0.000000
v 2.650296 9.174205 -0.205010
v 2.650297 9.174205 0.205011
v 2.668303 8.955423 0.460656
v 2.690757 8.682609 0.369419
v 2.700750 8.561194 0.000000
vt 0.597420 0.034089
vt 0.465231 0.003918
vt 0.359224 0.088456
vt 0.359224 0.224044
vt 0.465231 0.308582
vt 0.597420 0.278411
vt 0.656250 0.156250
vt 0.375000 0.312500
vt 0.410714 0.312500
vt 0.446429 0.312500
vt 0.482143 0.312500
vt 0.517857 0.312500
vt 0.553571 0.312500
vt 0.589286 0.312500
vt 0.625000 0.312500
vt 0.314170 0.293046
vt 0.349884 0.293046
vt 0.385599 0.293046
vt 0.421313 0.293046
vt 0.519378 0.550052
vt 0.555092 0.550052
vt 0.590806 0.550052
vt 0.626521 0.550052
vt 0.650167 0.627073
vt 0.343397 0.300183
vt 0.237390 0.384721
vt 0.237390 0.520310
vt 0.343397 0.604848
vt 0.389774 0.619225
vt 0.476013 0.632742
vt 0.500000 0.150000
vt 0.390500 0.512049
vt 0.389774 0.619225
vt 0.343397 0.604848
vt 0.237390 0.520310
vt 0.237390 0.384721
vt 0.343397 0.300183
vt 0.650167 0.627073
vt 0.476013 0.632742
vt 0.389774 0.619225
vt 0.343397 0.604848
vt 0.237390 0.520310
vt 0.237390 0.384721
vt 0.343397 0.300183
vt 0.650167 0.627073
vt 0.476013 0.632742
vt 0.389774 0.619225
vt 0.343397 0.604848
vt 0.237390 0.520310
vt 0.237390 0.384721
vt 0.343397 0.300183
vt 0.650167 0.627073
vt 0.476013 0.632742
vt 0.840403 0.641152
vt 0.874564 0.816762
vt 0.874564 0.816762
vt 0.840403 0.641152
vt 0.426515 0.766241
vt 0.426515 0.766241
vt 0.389774 0.619225
vt 0.343397 0.604848
vt 0.237390 0.520310
vt 0.237390 0.384721
vt 0.343397 0.300183
vt 0.650167 0.627073
vt 0.476013 0.632742
vn 0.222521 0.000000 -0.974928
vn 0.222521 0.000000 -0.974928
vn 0.222459 -0.010810 -0.974882
vn 0.222521 -0.001154 -0.974927
vn -0.623490 0.000000 -0.781832
vn -0.623490 0.000000 -0.781831
vn -0.623147 0.028521 -0.781585
vn -0.623465 0.008904 -0.781801
vn -1.000000 0.000000 -0.000000
vn -1.000000 0.000000 -0.000000
vn -0.999509 0.031321 -0.000000
vn -0.999509 0.031321 -0.000000
vn -0.623490 0.000000 0.781831
vn -0.623490 0.000000 0.781831
vn -0.623465 0.008904 0.781801
vn -0.623147 0.028521 0.781585
vn 0.222521 0.000000 0.974928
vn 0.222521 0.000000 0.974928
vn 0.222521 -0.001154 0.974927
vn 0.222458 -0.010810 0.974882
vn 0.900969 0.000000 0.433884
vn 0.900969 0.000000 0.433884
vn 0.900838 -0.017022 0.433821
vn 0.900554 -0.028663 0.433798
vn 0.900969 0.000000 -0.433884
vn 0.900969 0.000000 -0.433884
vn 0.900554 -0.028663 -0.433798
vn 0.900838 -0.017022 -0.433821
vn 0.000000 -1.000000 0.000001
vn 0.000000 -1.000000 0.000001
vn 0.000000 -1.000000 0.000000
vn 0.000000 -1.000000 0.000000
vn 0.000000 -1.000000 0.000000
vn 0.000000 -1.000000 0.000000
vn 0.000000 -1.000000 0.000000
vn 0.000000 -1.000000 0.000000
vn 0.864817 -0.188616 -0.465312
vn 0.843423 0.313169 -0.436535
vn 0.997185 0.074978 -0.000001
vn 0.776404 0.576034 -0.255697
vn 0.776406 0.576031 0.255699
vn 0.843424 0.313166 0.436535
vn 0.864819 -0.188617 0.465309
vn 0.811008 -0.585035 0.000000
vn 0.214185 -0.110773 -0.970492
vn 0.083904 -0.401135 -0.912168
vn -0.540384 0.389155 -0.746019
vn -0.293757 0.718013 -0.631003
vn -0.632202 0.774803 -0.000002
vn -0.632202 0.774804 -0.000001
vn -0.540383 0.389153 0.746020
vn -0.293755 0.718011 0.631006
vn 0.214183 -0.110772 0.970492
vn 0.083903 -0.401130 0.912171
vn 0.669794 -0.638332 0.379353
vn 0.440212 -0.832523 0.336331
vn 0.669793 -0.638333 -0.379352
vn 0.440212 -0.832524 -0.336330
vn 0.011099 -0.353524 -0.935360
vn 0.008815 -0.347942 -0.937474
vn -0.103131 0.784546 -0.611435
vn -0.095434 0.773470 -0.626607
vn -0.174469 0.984663 -0.000001
vn -0.174469 0.984663 0.000000
vn -0.103131 0.784545 0.611435
vn -0.095433 0.773470 0.626607
vn 0.011101 -0.353523 0.935360
vn 0.008817 -0.347942 0.937475
vn -0.017068 -0.969846 0.243119
vn -0.035095 -0.960680 0.275432
vn -0.017069 -0.969847 -0.243117
vn -0.035096 -0.960680 -0.275430
vn 0.003643 -0.350322 -0.936622
vn -0.000354 -0.318910 -0.947785
vn 0.003130 -0.348876 -0.937164
vn 0.002997 -0.316940 -0.948441
vn -0.026360 0.790401 -0.612023
vn -0.022282 0.763200 -0.645778
vn -0.023882 0.786369 -0.617296
vn -0.021611 0.758833 -0.650927
vn -0.033332 0.999444 0.000000
vn -0.033332 0.999444 0.000000
vn -0.044075 0.999028 0.000000
vn -0.044075 0.999028 -0.000000
vn -0.026360 0.790399 0.612025
vn -0.023882 0.786367 0.617298
vn -0.022282 0.763196 0.645782
vn -0.021611 0.758829 0.650931
vn 0.003643 -0.350322 0.936622
vn 0.003130 -0.348877 0.937163
vn -0.000354 -0.318912 0.947784
vn 0.002996 -0.316942 0.948440
vn -0.024514 -0.992281 0.121559
vn -0.033748 -0.990987 0.129634
vn -0.032832 -0.991123 0.128834
vn -0.042882 -0.989558 0.137606
vn -0.024514 -0.992282 -0.121558
vn -0.032832 -0.991123 -0.128833
vn -0.033747 -0.990988 -0.129632
vn -0.042882 -0.989559 -0.137604
vn -0.999431 0.033732 0.000001
vn -0.999642 0.026771 -0.000001
vn -0.997405 0.014177 -0.070585
vn -0.997708 0.013275 -0.066347
vn 0.999431 -0.033732 -0.000000
vn 0.999438 -0.029173 0.016530
vn 0.999489 -0.031967 0.000000
vn 0.999460 -0.028960 0.015522
vn 0.007255 0.293633 0.955891
vn 0.007254 0.293633 0.955891
vn 0.007255 0.293633 0.955891
vn 0.007254 0.293633 0.955891
vn -0.997405 0.014178 0.070584
vn -0.997708 0.013276 0.066347
vn 0.007255 0.293632 -0.955891
vn 0.007254 0.293632 -0.955891
vn 0.007254 0.293632 -0.955891
vn 0.007254 0.293632 -0.955891
vn 0.999438 -0.029173 -0.016530
vn 0.999460 -0.028961 -0.015522
vn 0.025937 -0.315138 -0.948691
vn 0.025938 -0.315139 -0.948691
vn -0.062233 0.756119 -0.651468
vn -0.062233 0.756119 -0.651468
vn -0.082028 0.996630 -0.000001
vn -0.082028 0.996630 -0.000002
vn -0.062233 0.756116 0.651472
vn -0.062233 0.756117 0.651471
vn 0.025936 -0.315137 0.948692
vn 0.025936 -0.315137 0.948692
vn 0.077901 -0.946491 0.313186
vn 0.077901 -0.946492 0.313185
vn 0.077901 -0.946492 0.313185
vn 0.077902 -0.946492 0.313183
vn 0.077902 -0.946491 -0.313187
vn 0.077902 -0.946492 -0.313184
vn 0.077902 -0.946492 -0.313184
vn 0.077902 -0.946493 -0.313181
s 1
g pCylinder1
usemtl lambert2SG
f 1/8/1 2/9/2 8/16/3
f 8/16/3 2/9/2 9/17/4
f 2/9/5 3/10/6 9/17/7
f 9/17/7 3/10/6 10/18/8
f 3/10/9 4/11/10 10/18/11
f 10/18/11 4/11/10 11/19/12
f 4/11/13 5/12/14 11/19/15
f 11/19/15 5/12/14 12/20/16
f 5/12/17 6/13/18 12/20/19
f 12/20/19 6/13/18 13/21/20
f 6/13/21 7/14/22 13/21/23
f 13/21/23 7/14/22 14/22/24
f 7/14/25 1/15/26 14/22/27
f 14/22/27 1/15/26 8/23/28
f 2/2/29 1/1/30 15/31/31
f 3/3/32 2/2/29 15/31/31
f 4/4/33 3/3/32 15/31/31
f 5/5/34 4/4/33 15/31/31
f 6/6/35 5/5/34 15/31/31
f 7/7/36 6/6/35 15/31/31
f 1/1/30 7/7/36 15/31/31
f 43/60/37 44/61/38 45/32/39
f 44/61/38 46/62/40 45/32/39
f 46/62/40 47/63/41 45/32/39
f 47/63/41 48/64/42 45/32/39
f 48/64/42 49/65/43 45/32/39
f 49/65/43 50/66/44 45/32/39
f 50/66/44 43/60/37 45/32/39
f 9/28/4 17/34/45 8/29/3
f 8/29/3 17/34/45 16/33/46
f 10/27/8 18/35/47 9/28/7
f 9/28/7 18/35/47 17/34/48
f 10/27/11 11/26/12 18/35/49
f 18/35/49 11/26/12 19/36/50
f 11/26/15 12/25/16 19/36/51
f 19/36/51 12/25/16 20/37/52
f 12/25/19 13/24/20 20/37/53
f 20/37/53 13/24/20 21/38/54
f 13/24/23 14/30/24 21/38/55
f 21/38/55 14/30/24 22/39/56
f 8/29/28 16/33/57 14/30/27
f 14/30/27 16/33/57 22/39/58
f 17/34/45 24/41/59 16/33/46
f 16/33/46 24/41/59 23/40/60
f 18/35/47 25/42/61 17/34/48
f 17/34/48 25/42/61 24/41/62
f 18/35/49 19/36/50 25/42/63
f 25/42/63 19/36/50 26/43/64
f 19/36/51 20/37/52 26/43/65
f 26/43/65 20/37/52 27/44/66
f 20/37/53 21/38/54 27/44/67
f 27/44/67 21/38/54 28/45/68
f 21/38/55 22/39/56 28/45/69
f 28/45/69 22/39/56 29/46/70
f 16/33/57 23/40/71 22/39/58
f 22/39/58 23/40/71 29/46/72
f 24/41/73 31/48/74 23/40/75
f 23/40/75 31/48/74 30/47/76
f 25/42/77 32/49/78 24/41/79
f 24/41/79 32/49/78 31/48/80
f 25/42/81 26/43/82 32/49/83
f 32/49/83 26/43/82 33/50/84
f 26/43/85 27/44/86 33/50/87
f 33/50/87 27/44/86 34/51/88
f 27/44/89 28/45/90 34/51/91
f 34/51/91 28/45/90 35/52/92
f 37/54/93 38/55/94 40/57/95
f 40/57/95 38/55/94 39/56/96
f 41/58/97 42/59/98 38/55/99
f 38/55/99 42/59/98 39/56/100
f 29/46/101 38/55/102 28/45/103
f 28/45/103 38/55/102 37/54/104
f 36/53/105 35/52/106 39/56/107
f 39/56/107 35/52/106 40/57/108
f 35/52/109 28/45/110 40/57/111
f 40/57/111 28/45/110 37/54/112
f 29/46/101 23/40/113 38/55/102
f 38/55/102 23/40/113 41/58/114
f 30/47/115 42/59/116 23/40/117
f 23/40/117 42/59/116 41/58/118
f 36/53/105 39/56/107 30/47/119
f 30/47/119 39/56/107 42/59/120
f 31/48/74 44/61/121 30/47/76
f 30/47/76 44/61/121 43/60/122
f 32/49/78 46/62/123 31/48/80
f 31/48/80 46/62/123 44/61/124
f 32/49/83 33/50/84 46/62/125
f 46/62/125 33/50/84 47/63/126
f 33/50/87 34/51/88 47/63/127
f 47/63/127 34/51/88 48/64/128
f 34/51/91 35/52/92 48/64/129
f 48/64/129 35/52/92 49/65/130
f 35/52/131 36/53/132 49/65/133
f 49/65/133 36/53/132 50/66/134
f 30/47/135 43/60/136 36/53/137
f 36/53/137 43/60/136 50/66/138
